<svg width="48" height="50" viewBox="0 0 48 50" fill="none" xmlns="http://www.w3.org/2000/svg">
<path d="M31.25 40.3125L43.625 27.9375C44.0833 27.4792 44.6667 27.25 45.375 27.25C46.0833 27.25 46.6667 27.4792 47.125 27.9375C47.5833 28.3958 47.8125 28.9792 47.8125 29.6875C47.8125 30.3958 47.5833 30.9792 47.125 31.4375L33 45.5625C32.5 46.0625 31.9167 46.3125 31.25 46.3125C30.5833 46.3125 30 46.0625 29.5 45.5625L22.375 38.4375C21.9167 37.9792 21.6875 37.3958 21.6875 36.6875C21.6875 35.9792 21.9167 35.3958 22.375 34.9375C22.8333 34.4792 23.4167 34.25 24.125 34.25C24.8333 34.25 25.4167 34.4792 25.875 34.9375L31.25 40.3125ZM5 50C3.625 50 2.44833 49.5108 1.47 48.5325C0.491667 47.5542 0.00166667 46.3767 0 45V10C0 8.625 0.49 7.44833 1.47 6.47C2.45 5.49167 3.62667 5.00167 5 5H15.4375C15.8958 3.54167 16.7917 2.34417 18.125 1.4075C19.4583 0.470833 20.9167 0.00166667 22.5 0C24.1667 0 25.6567 0.469167 26.97 1.4075C28.2833 2.34583 29.1683 3.54333 29.625 5H40C41.375 5 42.5525 5.49 43.5325 6.47C44.5125 7.45 45.0017 8.62667 45 10V20C45 20.7083 44.76 21.3025 44.28 21.7825C43.8 22.2625 43.2067 22.5017 42.5 22.5C41.7933 22.4983 41.2 22.2583 40.72 21.78C40.24 21.3017 40 20.7083 40 20V10H35V15C35 15.7083 34.76 16.3025 34.28 16.7825C33.8 17.2625 33.2067 17.5017 32.5 17.5H12.5C11.7917 17.5 11.1983 17.26 10.72 16.78C10.2417 16.3 10.0017 15.7067 10 15V10H5V45H17.5C18.2083 45 18.8025 45.24 19.2825 45.72C19.7625 46.2 20.0017 46.7933 20 47.5C19.9983 48.2067 19.7583 48.8008 19.28 49.2825C18.8017 49.7642 18.2083 50.0033 17.5 50H5ZM22.5 10C23.2083 10 23.8025 9.76 24.2825 9.28C24.7625 8.8 25.0017 8.20667 25 7.5C24.9983 6.79333 24.7583 6.2 24.28 5.72C23.8017 5.24 23.2083 5 22.5 5C21.7917 5 21.1983 5.24 20.72 5.72C20.2417 6.2 20.0017 6.79333 20 7.5C19.9983 8.20667 20.2383 8.80083 20.72 9.2825C21.2017 9.76417 21.795 10.0033 22.5 10Z" fill="#06B6D4"/>
</svg>
